<svg xmlns="http://www.w3.org/2000/svg" width="167.438" height="79.25" viewBox="0 0 167.438 79.25">
  <defs>
    <style>
      .cls-1 {
        fill-rule: evenodd;
      }
    </style>
  </defs>
  <path id="خد_ياض" data-name="خد ياض" class="cls-1" d="M234.238,227.709a4.975,4.975,0,0,0-.959-1.642,4.611,4.611,0,0,0-1.544-1.137,4.918,4.918,0,0,0-2.083-.421,6.18,6.18,0,0,0-2.854.694,12.888,12.888,0,0,0-2.644,1.832,20.587,20.587,0,0,0-2.433,2.569q-1.148,1.432-2.2,2.927t-2.012,2.885q-0.958,1.39-1.8,2.4-0.656,0-1.451-.021a3.736,3.736,0,0,1-1.31-.232,1.649,1.649,0,0,1-.936-0.653,3.976,3.976,0,0,1-.421-0.863,4.279,4.279,0,0,1-.187-0.737c-0.032-.211-0.094-0.316-0.187-0.316a1.517,1.517,0,0,0-.936.59,8.786,8.786,0,0,0-1.123,1.516,10.553,10.553,0,0,0-.96,2.1,7.231,7.231,0,0,0-.4,2.317q0,0.969.117,2.253t0.257,2.674q0.141,1.391.257,2.759t0.117,2.5a16.326,16.326,0,0,1-2.059,8.023,21.486,21.486,0,0,1-5.5,6.465,26.734,26.734,0,0,1-7.885,4.3,27.528,27.528,0,0,1-9.171,1.559,16.313,16.313,0,0,1-5.475-.864,11.762,11.762,0,0,1-4.118-2.421,10.62,10.62,0,0,1-2.6-3.727,12.211,12.211,0,0,1-.912-4.78,21.214,21.214,0,0,1,.842-5.939,43.935,43.935,0,0,1,2.152-5.811,27.074,27.074,0,0,0,1.007-2.569,5.439,5.439,0,0,0,.3-1.474c0-.365-0.11-0.548-0.328-0.548a1.183,1.183,0,0,0-.678.316,5.942,5.942,0,0,0-.866.884,14.608,14.608,0,0,0-.959,1.327,16.507,16.507,0,0,0-.913,1.6q-1.077,2.148-1.965,4.212a40.26,40.26,0,0,0-1.544,4.211,31.28,31.28,0,0,0-1.006,4.464,33.22,33.22,0,0,0-.351,4.97,19.786,19.786,0,0,0,.959,6.127,15.6,15.6,0,0,0,2.9,5.286,14.315,14.315,0,0,0,4.913,3.727,16.289,16.289,0,0,0,7.043,1.411,21.812,21.812,0,0,0,8.259-1.6,30.044,30.044,0,0,0,7.347-4.274,37.147,37.147,0,0,0,6.153-6.17,46.55,46.55,0,0,0,4.726-7.244,38.656,38.656,0,0,0,3.018-7.5,25.932,25.932,0,0,0,1.053-6.991,23.484,23.484,0,0,0,8.423-1.495A22.342,22.342,0,0,0,228.2,243.1a19.485,19.485,0,0,0,4.656-6.043,16.5,16.5,0,0,0,1.708-7.413A5.782,5.782,0,0,0,234.238,227.709Zm-13.523,6.233q0.607-.716,1.333-1.432a9.95,9.95,0,0,1,1.568-1.263,8.6,8.6,0,0,1,1.778-.885,5.772,5.772,0,0,1,1.965-.336,9.031,9.031,0,0,1,1.474.147,7.831,7.831,0,0,1,1.638.463,4.488,4.488,0,0,1,1.31.8,1.508,1.508,0,0,1,.539,1.158,1.7,1.7,0,0,1-.819,1.264,10.73,10.73,0,0,1-2.129,1.221,24.158,24.158,0,0,1-2.9,1.074q-1.592.484-3.182,0.863t-2.948.59a14.92,14.92,0,0,1-2.2.211,19.612,19.612,0,0,1,2.574-3.875h0ZM207.94,218.676a0.3,0.3,0,0,0-.094.189,0.964,0.964,0,0,0,.468.506q1.357,1.095,2.855,2.147t2.807,1.853a1.323,1.323,0,0,0,.562.211,0.462,0.462,0,0,0,.257-0.147,1.967,1.967,0,0,0,.258-0.274l5.662-6.149a1.034,1.034,0,0,0,.28-0.463,0.357,0.357,0,0,0-.187-0.3,3.836,3.836,0,0,1-.421-0.337q-1.358-.925-2.807-1.9t-2.668-1.727a1.593,1.593,0,0,0-.655-0.294,0.66,0.66,0,0,0-.374.21q-1.218,1.306-2.784,2.99t-2.972,3.285A2.41,2.41,0,0,0,207.94,218.676Zm39.026,38.176a23.81,23.81,0,0,1-.515-3.411q-0.139-1.768-.14-3.2,0.422-6.7.725-11.37t0.491-7.792q0.188-3.115.281-4.906t0.094-2.716a4.15,4.15,0,0,0-.094-1.18,0.3,0.3,0,0,0-.281-0.21,0.6,0.6,0,0,0-.561.337q-0.187.338-.374,0.758l-3.089,6.991a3.491,3.491,0,0,0-.257.99q-0.071.568-.117,1.116-0.375,5.391-.632,9.328t-0.421,6.759q-0.165,2.823-.281,4.633t-0.164,2.885q-0.047,1.074-.046,1.6V258.2a15.668,15.668,0,0,0,.093,1.706q0.093,0.863.234,1.789Zm-5.615,28.364a0.3,0.3,0,0,0-.094.19,0.972,0.972,0,0,0,.468.5q1.357,1.1,2.925,2.211t2.877,1.916a1.342,1.342,0,0,0,.562.211,0.459,0.459,0,0,0,.257-0.147,1.9,1.9,0,0,0,.258-0.274l5.287-5.728q1.357,1.095,2.925,2.169t2.878,1.874a1.33,1.33,0,0,0,.561.211,0.47,0.47,0,0,0,.258-0.148,1.952,1.952,0,0,0,.257-0.273l5.662-6.149a1.045,1.045,0,0,0,.281-0.463,0.36,0.36,0,0,0-.187-0.3,3.837,3.837,0,0,1-.422-0.337q-1.357-.925-2.924-1.958t-2.784-1.79a1.6,1.6,0,0,0-.655-0.295,0.656,0.656,0,0,0-.375.211q-1.17,1.221-2.573,2.779t-2.761,3.032l-2.925-2q-1.567-1.074-2.784-1.832a1.594,1.594,0,0,0-.655-0.3,0.665,0.665,0,0,0-.375.211l-2.784,2.99q-1.567,1.683-2.971,3.285A2.579,2.579,0,0,0,241.351,285.216Zm0.327-25.921a2.019,2.019,0,0,0-.047.421v0.421a13.164,13.164,0,0,0,.539,3.643,11.012,11.012,0,0,0,1.661,3.432,9.081,9.081,0,0,0,2.807,2.548,7.71,7.71,0,0,0,3.978.99,8.021,8.021,0,0,0,3.533-.758,9.909,9.909,0,0,0,2.784-2,13,13,0,0,0,2.106-2.864,19.515,19.515,0,0,0,1.45-3.348,21.508,21.508,0,0,0,.819-3.412,20.794,20.794,0,0,0,.258-3.116,5.345,5.345,0,0,0-.094-0.906,0.543,0.543,0,0,0-.562-0.526,0.645,0.645,0,0,0-.514.4,4.4,4.4,0,0,0-.4.927q-0.165.526-.281,1.031a3.052,3.052,0,0,1-.21.674,5.676,5.676,0,0,1-2.691,2.948,8.47,8.47,0,0,1-4.094,1.053,6.363,6.363,0,0,1-2.621-.484,5.212,5.212,0,0,1-1.8-1.306,6.29,6.29,0,0,1-1.147-1.895,10.781,10.781,0,0,1-.608-2.253Zm60.738-2.022a6.816,6.816,0,0,1-.514-1.789,17,17,0,0,1-.141-2.422q0-1.052.141-2.548t0.327-2.927q0.186-1.431.375-2.59t0.28-1.579a1.778,1.778,0,0,0,.047-0.379V242.7q0-.885-0.421-0.884a0.746,0.746,0,0,0-.515.336,2.326,2.326,0,0,0-.421,1.011l-3.229,8.928a41.737,41.737,0,0,1-1.754,4.233,27.619,27.619,0,0,1-1.942,3.39,25.066,25.066,0,0,1-2.2,2.8,30.081,30.081,0,0,1-2.527,2.463q-2.714,2.4-5.545,4.633t-5.4,4.675a3.98,3.98,0,0,0-.772.779,1.014,1.014,0,0,0-.211.526,0.4,0.4,0,0,0,.3.4,1.687,1.687,0,0,0,.538.106,0.571,0.571,0,0,0,.164-0.022,0.426,0.426,0,0,1,.117-0.021q0.468-.126,1.708-0.421t2.644-.631q1.4-.339,2.691-0.632t1.895-.421a7.622,7.622,0,0,0,3.158-1.5,9.759,9.759,0,0,0,2.083-2.675q1.169-2.148,2.035-4.148t1.661-4.317Zm17.08-24.784a0.309,0.309,0,0,0-.094.19,0.972,0.972,0,0,0,.468.5q1.359,1.095,2.855,2.148t2.807,1.853a1.342,1.342,0,0,0,.562.211,0.465,0.465,0,0,0,.257-0.148,1.967,1.967,0,0,0,.258-0.274l5.662-6.148a1.035,1.035,0,0,0,.28-0.464,0.357,0.357,0,0,0-.187-0.294,3.959,3.959,0,0,1-.421-0.337q-1.357-.927-2.807-1.895t-2.668-1.727a1.594,1.594,0,0,0-.655-0.3,0.657,0.657,0,0,0-.374.211q-1.217,1.305-2.784,2.99t-2.972,3.285A2.579,2.579,0,0,0,319.5,232.489Zm-22.6,27.059a16.77,16.77,0,0,0,.585,3.979,11.063,11.063,0,0,0,1.684,3.6,8.887,8.887,0,0,0,2.972,2.611,9.051,9.051,0,0,0,4.445,1.011,18.876,18.876,0,0,0,9.1-2.085,21.435,21.435,0,0,0,6.809-5.917,39.261,39.261,0,0,0,3.58-5.622q1.473-2.842,3.3-5.749l2.527-3.79a10.812,10.812,0,0,0,.726-1.242,3.018,3.018,0,0,0,.351-1.369,0.57,0.57,0,0,0-.656-0.632,3.542,3.542,0,0,0-1.146.169,8.959,8.959,0,0,0-.936.379q-0.446.212-.889,0.379a2.834,2.834,0,0,1-1.006.168,6.913,6.913,0,0,1-2.036-.294q-0.958-.3-1.895-0.632t-1.918-.632a7.148,7.148,0,0,0-2.059-.295,6.958,6.958,0,0,0-3.346.843,11.613,11.613,0,0,0-2.807,2.1,14.254,14.254,0,0,0-2.13,2.78,13.944,13.944,0,0,0-1.31,2.864l-2.527,8.086a7.7,7.7,0,0,1-2.737-.422,5.711,5.711,0,0,1-1.872-1.137,5.253,5.253,0,0,1-1.216-1.684,12.113,12.113,0,0,1-.726-2.064Zm24.379-9.5q0.843,0.149,1.708.379t1.685,0.5q0.818,0.274,1.474.569a30.453,30.453,0,0,1-3.135,3.011,29.5,29.5,0,0,1-3.955,2.8,25.448,25.448,0,0,1-4.422,2.084,13.256,13.256,0,0,1-4.492.821,34.5,34.5,0,0,1,1.217-3.348,15.125,15.125,0,0,1,1.9-3.306,10.757,10.757,0,0,1,2.737-2.548,7.285,7.285,0,0,1,3.744-1.116A9.038,9.038,0,0,1,321.274,250.051Z" transform="translate(-166.031 -211.5)"/>
</svg>
